HIERARCHY
ROOT root
{
	OFFSET 0.000000 0.000000 0.000000
	CHANNELS 6 Xposition Yposition Zposition Zrotation Yrotation Xrotation
	JOINT lhip
	{
		OFFSET 0.058581 -0.082280 -0.017664
		CHANNELS 3 Zrotation Yrotation Xrotation
		JOINT lknee
		{
			OFFSET 0.043451 -0.386469 0.008037
			CHANNELS 3 Zrotation Yrotation Xrotation
			JOINT lankle
			{
				OFFSET -0.014790 -0.426874 -0.037428
				CHANNELS 3 Zrotation Yrotation Xrotation
				JOINT ltoe
				{
					OFFSET 0.041054 -0.060286 0.122042
					CHANNELS 3 Zrotation Yrotation Xrotation
					End Site
					{
						OFFSET 0.000000 0.000000 0.000000
					}
				}
			}
		}
	}
	JOINT rhip
	{
		OFFSET -0.060310 -0.090513 -0.013543
		CHANNELS 3 Zrotation Yrotation Xrotation
		JOINT rknee
		{
			OFFSET -0.043257 -0.383688 -0.004843
			CHANNELS 3 Zrotation Yrotation Xrotation
			JOINT rankle
			{
				OFFSET 0.019056 -0.420046 -0.034562
				CHANNELS 3 Zrotation Yrotation Xrotation
				JOINT rtoe
				{
					OFFSET -0.034840 -0.062106 0.130323
					CHANNELS 3 Zrotation Yrotation Xrotation
					End Site
					{
						OFFSET 0.000000 0.000000 0.000000
					}
				}
			}
		}
	}
	JOINT lowerback
	{
		OFFSET 0.004439 0.124404 -0.038385
		CHANNELS 3 Zrotation Yrotation Xrotation
		JOINT upperback
		{
			OFFSET 0.004488 0.137956 0.026820
			CHANNELS 3 Zrotation Yrotation Xrotation
			JOINT chest
			{
				OFFSET -0.002265 0.056032 0.002855
				CHANNELS 3 Zrotation Yrotation Xrotation
				JOINT lowerneck
				{
					OFFSET -0.013390 0.211636 -0.033468
					CHANNELS 3 Zrotation Yrotation Xrotation
					JOINT upperneck
					{
						OFFSET 0.010113 0.088937 0.050410
						CHANNELS 3 Zrotation Yrotation Xrotation
						End Site
						{
							OFFSET 0.000000 0.000000 0.000000
						}
					}
				}
				JOINT lclavicle
				{
					OFFSET 0.071702 0.114000 -0.018898
					CHANNELS 3 Zrotation Yrotation Xrotation
					JOINT lshoulder
					{
						OFFSET 0.122921 0.045205 -0.019046
						CHANNELS 3 Zrotation Yrotation Xrotation
						JOINT lelbow
						{
							OFFSET 0.255332 -0.015649 -0.022946
							CHANNELS 3 Zrotation Yrotation Xrotation
							JOINT lwrist
							{
								OFFSET 0.265709 0.012698 -0.007375
								CHANNELS 3 Zrotation Yrotation Xrotation
								End Site
								{
									OFFSET 0.000000 0.000000 0.000000
								}
							}
						}
					}
				}
				JOINT rclavicle
				{
					OFFSET -0.082954 0.112472 -0.023707
					CHANNELS 3 Zrotation Yrotation Xrotation
					JOINT rshoulder
					{
						OFFSET -0.113228 0.046853 -0.008472
						CHANNELS 3 Zrotation Yrotation Xrotation
						JOINT relbow
						{
							OFFSET -0.260127 -0.014369 -0.031269
							CHANNELS 3 Zrotation Yrotation Xrotation
							JOINT rwrist
							{
								OFFSET -0.269108 0.006794 -0.006027
								CHANNELS 3 Zrotation Yrotation Xrotation
								End Site
								{
									OFFSET 0.000000 0.000000 0.000000
								}
							}
						}
					}
				}
			}
		}
	}
}
MOTION
Frames: 11
Frame Time: 0.033333
-0.344133 0.520396 0.904756 100.194674 -0.152066 96.716657 1.393779 15.632101 -16.121868 -1.997772 14.329971 52.285162 -2.031540 10.749552 -31.810454 0.000000 -0.000000 0.000000 -1.271204 -7.480939 -43.963980 -5.224570 -23.388987 54.342075 1.280012 -10.520314 -20.043648 0.000000 -0.000000 0.000000 2.883860 -6.590751 48.300426 5.452984 -1.549151 -8.583260 6.229489 -2.360111 -2.118396 4.115479 -12.899959 -14.129888 4.096575 -11.114629 3.132957 -27.882625 -13.243709 6.318437 -38.813945 -12.555151 6.209319 19.682365 -61.178068 -18.197828 20.533054 -14.384529 -27.368553 26.810533 19.108972 3.624296 38.370758 8.708070 1.501145 -21.061958 32.690768 -42.337308 -24.837952 14.767738 -34.960526 
-0.336225 0.523552 0.904096 97.657103 -0.211181 96.714791 1.073076 15.689898 -15.457329 -1.501482 14.555706 52.921070 -2.288246 10.739965 -31.001832 0.000000 -0.000000 0.000000 -0.491967 -7.584082 -43.256824 -5.625308 -24.216625 53.613879 0.595915 -11.488083 -21.011270 0.000000 -0.000000 0.000000 2.958699 -6.624152 48.072458 5.211741 -1.572584 -8.525436 6.175785 -2.237145 -2.194507 3.200915 -11.881803 -13.803334 3.588480 -9.638817 2.948516 -28.297271 -13.223664 6.300999 -38.706310 -11.999711 6.217544 19.313132 -60.991972 -17.225033 20.376707 -14.424242 -27.751541 27.063117 19.022205 3.858798 37.914182 8.518589 1.397640 -20.760151 32.755728 -42.077731 -24.938500 14.393444 -35.138260 
-0.326133 0.526651 0.902873 95.224018 -0.647668 95.765552 0.818226 15.705398 -14.176685 -1.118881 14.451628 54.529280 -2.959196 10.460176 -29.236276 0.000000 -0.000000 0.000000 -1.102274 -7.815161 -41.413653 -4.658332 -23.356379 53.549641 0.688891 -10.055141 -22.535955 0.000000 -0.000000 0.000000 3.155285 -6.709048 48.364318 4.782444 -1.629386 -8.051297 5.736793 -2.253471 -2.196884 2.228532 -10.803416 -13.852221 3.016560 -9.049878 3.146476 -27.928510 -13.668491 6.205751 -38.925196 -11.516057 6.319831 19.024024 -60.414506 -17.404791 19.963527 -14.690014 -26.984126 26.745076 19.254767 3.785911 38.222539 7.967777 1.150283 -20.981392 32.811119 -42.202659 -23.934341 14.440237 -34.405827 
-0.316454 0.526204 0.902099 93.095254 -0.777709 95.055338 1.364874 15.571305 -14.345965 -0.349842 14.095399 58.248710 -3.634964 9.422897 -26.144103 0.000000 -0.000000 0.000000 -0.888037 -7.348356 -39.816466 -4.257822 -22.174521 53.140691 0.370629 -9.407706 -24.000279 0.000000 -0.000000 0.000000 3.153555 -6.393140 48.475069 4.529258 -1.407400 -7.620154 5.566531 -2.201353 -2.466486 0.783833 -9.493317 -13.169096 2.214333 -7.912427 3.270557 -27.654499 -14.085707 6.261071 -39.032583 -11.323710 6.300599 18.055850 -59.184412 -16.123392 19.808135 -14.720027 -26.234418 26.859641 19.132843 3.883163 38.207804 7.470086 0.869349 -20.775860 32.721236 -41.806518 -24.130535 14.264643 -34.534878 
-0.309265 0.525551 0.901592 91.568544 -1.126240 95.064710 1.618639 13.900258 -16.540948 0.258105 13.777276 63.397100 -4.491676 8.566590 -22.016889 0.000000 -0.000000 0.000000 -0.704014 -6.751829 -39.236356 -4.483208 -21.946085 52.587211 -0.589373 -10.300899 -25.256888 0.000000 -0.000000 0.000000 3.254940 -6.160140 48.144197 4.291925 -1.323217 -7.933609 5.228503 -2.329766 -2.325825 -0.425361 -8.374685 -12.966456 1.644116 -6.993114 3.702271 -27.308262 -14.109262 6.342542 -39.316113 -11.600250 6.531355 17.811884 -58.208960 -15.474323 19.512773 -14.640323 -26.309626 27.042976 18.788066 3.943249 38.231232 7.316458 0.953194 -20.478785 32.362154 -41.214609 -24.570300 13.984806 -35.052385 
-0.301679 0.525130 0.901161 89.768024 -1.429556 94.396149 2.179184 12.707820 -18.480453 0.510276 12.943475 68.886731 -6.161057 7.277348 -17.303608 0.000000 -0.000000 0.000000 -0.380384 -6.078592 -38.139715 -4.562941 -20.566667 52.557679 -1.286354 -10.524567 -26.151051 0.000000 -0.000000 0.000000 3.135965 -5.570427 48.444600 3.923151 -1.205570 -7.701843 5.007994 -2.323568 -2.429730 -1.471135 -7.794274 -12.820006 1.445595 -6.003267 3.561118 -27.346149 -14.229048 6.241073 -39.307807 -11.450927 6.735156 18.018693 -57.939497 -15.721509 19.843053 -14.397793 -26.735892 27.083085 18.956481 4.030861 38.181751 6.767860 0.945567 -20.476370 32.123322 -41.497002 -24.522407 14.007965 -34.483274 
-0.294654 0.524999 0.901043 88.076560 -1.705020 93.600669 2.415505 11.233641 -20.799929 0.358728 11.700214 73.740468 -7.152646 6.872363 -14.609716 0.000000 -0.000000 0.000000 0.107211 -5.074832 -36.994311 -4.692404 -18.769015 52.419157 -1.877617 -11.237850 -26.940361 0.000000 -0.000000 0.000000 3.107813 -4.928994 49.085970 3.489497 -1.180318 -7.529413 4.656457 -2.241859 -2.500914 -2.310638 -7.597022 -12.783363 1.468969 -5.237453 3.239364 -28.005660 -14.289381 6.114898 -38.631149 -11.200862 6.814195 18.451703 -57.964865 -15.850358 20.433549 -13.950378 -26.737288 27.160715 19.184451 4.134533 37.778700 6.027861 1.225882 -20.211647 32.205753 -40.802536 -24.342119 13.625301 -35.167791 
-0.288376 0.525158 0.901201 87.044486 -2.327950 92.840534 2.051304 8.949494 -23.736456 -0.537065 10.270509 77.036499 -6.704707 5.949817 -15.909850 0.000000 -0.000000 0.000000 -0.170839 -4.593186 -36.035721 -4.833485 -17.782229 52.741183 -1.748019 -11.642232 -27.667406 0.000000 -0.000000 0.000000 3.016569 -4.412965 49.806770 3.086118 -1.538316 -7.335777 4.198635 -2.285758 -2.557503 -2.701904 -7.258084 -13.078168 1.454768 -4.579560 3.206069 -28.332936 -14.210056 6.045883 -38.176171 -11.148495 6.812911 18.949851 -57.830820 -16.497998 20.351057 -14.017134 -26.649990 27.189358 19.268123 4.064940 37.658052 5.919339 1.551120 -20.071231 31.770200 -40.616782 -23.712946 13.790626 -35.221539 
-0.283162 0.523926 0.902353 86.233983 -2.651704 92.445534 2.504487 6.630529 -27.420669 -0.810755 9.638614 78.278244 -5.983892 5.949161 -16.914932 0.000000 -0.000000 0.000000 -0.017079 -4.043321 -35.288578 -4.758779 -16.773689 52.563017 -1.535515 -12.179398 -28.083261 0.000000 -0.000000 0.000000 2.652210 -3.567361 50.568075 2.986942 -1.781132 -7.497071 4.219760 -2.195694 -2.561586 -3.067103 -6.921855 -13.061720 1.400490 -4.115560 2.889323 -28.786668 -14.141474 5.884425 -38.169671 -11.211312 7.006063 19.141505 -57.185371 -16.895752 20.586690 -13.760764 -27.055771 27.217491 19.180688 3.857477 37.364721 5.783122 1.991786 -20.071004 31.601352 -40.186200 -23.157564 13.702733 -34.874495 
-0.277375 0.523695 0.904101 85.252733 -2.951070 92.034717 2.763982 5.018422 -31.014081 -0.613644 8.976637 77.431263 -5.207524 5.912859 -17.653904 0.000000 -0.000000 0.000000 -0.071376 -3.823909 -34.353088 -4.518508 -16.140299 52.244032 -1.276676 -12.266855 -28.233754 0.000000 -0.000000 0.000000 2.475199 -2.820988 51.412735 2.688254 -1.961373 -7.656608 4.087277 -2.069185 -2.547637 -3.473891 -6.615764 -13.062882 1.433124 -3.961403 2.869120 -29.166272 -14.030303 5.804519 -38.313061 -11.199699 7.087870 18.691663 -56.679665 -16.918490 20.534150 -13.523611 -27.462376 27.066961 19.162476 3.860709 37.307691 5.722432 2.249120 -20.077888 31.642808 -40.236510 -23.812312 13.710659 -35.050751 
-0.270152 0.523277 0.905608 83.820289 -3.108436 91.337265 3.247379 4.706549 -33.720051 -0.111962 8.648553 74.306973 -4.682146 6.133670 -18.951109 0.000000 -0.000000 0.000000 0.274164 -3.738745 -32.972020 -4.382712 -14.820798 51.777276 -0.991272 -11.980842 -28.582284 0.000000 -0.000000 0.000000 2.412174 -1.993051 52.424623 2.062748 -1.911857 -7.609463 3.919522 -2.012918 -2.470655 -4.151012 -6.058600 -13.171365 1.529130 -3.581844 2.967294 -28.992100 -14.164722 5.916237 -39.124458 -10.729199 6.743350 19.263673 -55.781459 -16.468104 19.634867 -13.506129 -25.982096 26.313771 19.439499 3.851272 37.797282 5.599359 2.059207 -20.149007 31.580719 -38.902563 -22.765186 13.550906 -35.291737 
